<?xml version="1.0" standalone="no"?>
<!DOCTYPE svg PUBLIC "-//W3C//DTD SVG 20010904//EN"
 "http://www.w3.org/TR/2001/REC-SVG-20010904/DTD/svg10.dtd">
<svg version="1.0" xmlns="http://www.w3.org/2000/svg"
 width="809.000000pt" height="809.000000pt" viewBox="0 0 809.000000 809.000000"
 preserveAspectRatio="xMidYMid meet">
<metadata>
Created by potrace 1.14, written by Peter Selinger 2001-2017
</metadata>
<g transform="translate(0.000000,809.000000) scale(0.100000,-0.100000)"
fill="#000000" stroke="none">
<path d="M3225 6999 c-33 -4 -101 -7 -151 -8 -111 -1 -279 -25 -350 -51 -68
-24 -187 -103 -223 -149 -61 -77 -73 -115 -79 -248 l-5 -123 -29 0 c-64 0
-229 -105 -288 -184 -57 -76 -80 -150 -87 -281 -5 -102 -3 -115 21 -179 70
-183 187 -294 348 -331 39 -9 98 -27 131 -40 33 -14 99 -32 146 -41 47 -9 115
-24 150 -33 l65 -18 -56 -6 c-92 -11 -415 -18 -393 -9 23 10 -70 22 -174 22
-153 0 -497 61 -574 102 -17 9 -17 11 7 33 31 29 34 74 8 98 -39 35 -162 13
-162 -28 0 -8 -15 -17 -36 -21 -49 -9 -372 1 -464 15 -107 16 -364 49 -435 56
-33 3 -111 13 -172 22 -87 13 -118 14 -138 5 -48 -22 -22 -70 45 -85 14 -3
119 -15 235 -27 116 -11 253 -27 305 -36 243 -38 293 -44 410 -50 78 -4 158
-2 213 5 l88 12 34 -30 c19 -16 60 -37 92 -47 32 -9 91 -27 131 -40 40 -13 89
-25 110 -26 93 -4 -144 -18 -473 -28 -477 -14 -1367 -27 -1404 -19 l-29 6 -7
-166 c-3 -91 -4 -211 -1 -266 3 -55 6 -158 6 -230 0 -71 5 -137 10 -145 8 -13
47 -15 274 -12 l265 3 7 -48 c4 -26 4 -376 1 -778 -7 -805 2 -1387 26 -1715
31 -404 48 -691 43 -699 -3 -5 3 -33 13 -62 l18 -54 49 0 c27 1 101 6 164 13
73 7 183 10 300 6 117 -4 233 -2 315 6 72 7 216 15 320 17 194 6 1259 7 2235
3 615 -3 882 11 980 50 25 10 71 22 103 25 32 4 73 13 91 20 18 8 97 23 177
34 79 12 187 28 239 36 52 8 136 19 185 24 50 5 131 14 180 20 50 5 225 12
390 15 165 3 408 11 540 16 132 6 384 14 560 18 307 7 322 8 368 31 71 34 105
91 150 251 20 68 21 97 20 305 -3 271 -15 351 -72 469 -81 167 -159 214 -334
201 -162 -11 -311 -34 -388 -60 -41 -14 -96 -32 -123 -39 l-49 -14 -31 36
c-17 20 -56 64 -86 98 -79 89 -111 131 -155 204 -21 36 -48 79 -60 95 -54 74
-136 237 -163 326 -11 35 -25 100 -32 144 -7 44 -21 117 -31 163 -28 126 -39
241 -40 438 -1 264 9 421 37 589 14 83 30 175 34 205 14 92 39 198 55 237 9
21 30 90 46 153 17 63 41 142 54 175 13 33 42 124 64 202 22 79 55 169 72 200
16 32 39 74 49 93 30 57 89 210 105 275 27 112 8 256 -51 370 -32 64 -40 73
-94 116 -75 60 -163 107 -266 145 -141 51 -311 67 -624 59 -129 -3 -287 -12
-350 -20 -242 -30 -446 -37 -882 -31 -442 6 -459 7 -633 51 -11 2 -33 7 -50
11 -16 3 -88 25 -160 49 -230 77 -519 121 -680 104z m140 -59 c149 -10 353
-53 526 -108 52 -17 117 -38 144 -47 227 -73 468 -90 1080 -75 284 7 384 13
475 28 86 15 183 22 390 26 400 9 542 -13 735 -112 96 -50 155 -111 184 -191
43 -118 50 -280 15 -356 -7 -16 -25 -61 -39 -100 -14 -38 -43 -99 -64 -135
-38 -64 -64 -131 -96 -243 -9 -32 -27 -82 -40 -110 -13 -29 -26 -70 -30 -92
-4 -22 -13 -60 -20 -85 -7 -25 -18 -70 -25 -100 -7 -30 -25 -92 -40 -137 -51
-151 -129 -597 -130 -748 -1 -38 -5 -90 -9 -115 -12 -75 5 -525 24 -615 9 -44
18 -109 20 -144 9 -135 49 -291 91 -354 14 -22 47 -79 72 -126 25 -47 57 -102
72 -121 15 -19 37 -53 48 -75 11 -22 29 -49 39 -60 10 -11 40 -47 67 -80 27
-33 74 -86 105 -117 30 -32 52 -60 48 -64 -3 -4 -35 -16 -71 -28 l-65 -22 -25
25 -25 25 -24 -22 c-13 -12 -29 -22 -36 -22 -9 0 -11 -8 -7 -24 5 -22 1 -25
-61 -40 -71 -18 -300 -35 -543 -41 -117 -3 -173 1 -290 20 -238 39 -322 54
-385 71 -77 20 -257 49 -465 75 -129 16 -194 19 -300 14 -109 -4 -143 -3 -172
10 -20 8 -58 16 -83 19 -51 4 -200 -26 -246 -49 -41 -22 -133 -114 -154 -155
-23 -45 -32 -230 -16 -324 15 -85 100 -255 156 -311 54 -54 185 -121 265 -135
57 -11 72 -10 120 6 48 17 58 25 83 69 26 46 28 56 23 127 -8 117 -43 171
-143 222 -35 18 -53 14 -100 -21 -36 -27 -41 -47 -17 -81 19 -27 44 -28 74 -2
29 25 32 25 57 -2 33 -37 43 -64 43 -115 0 -64 -26 -115 -65 -125 -74 -20
-207 33 -277 111 -51 56 -101 174 -119 277 -14 80 -7 205 14 255 51 123 165
164 334 120 87 -23 108 -37 210 -145 65 -68 90 -104 130 -188 81 -166 96 -243
97 -493 1 -199 0 -212 -22 -255 -12 -25 -38 -57 -57 -71 -34 -25 -34 -26 -257
-28 -204 -1 -230 0 -293 20 -59 18 -185 77 -244 114 -61 38 -68 46 -67 73 2
35 -11 62 -29 62 -9 0 -12 6 -9 15 6 14 -18 21 -49 16 -4 -1 -5 14 -2 33 7 37
-16 86 -41 86 -8 0 -14 7 -14 16 0 11 -5 14 -16 10 -14 -5 -15 -4 -4 9 7 8 16
12 21 9 5 -3 9 0 9 7 0 7 -8 9 -21 6 -13 -3 -28 2 -40 14 -21 21 -49 26 -49 8
0 -5 -4 -7 -10 -4 -5 3 -10 15 -10 26 0 12 -4 17 -11 13 -6 -3 -15 0 -20 7 -7
11 -9 9 -10 -6 -1 -11 -1 -24 0 -29 4 -19 -28 17 -66 72 -21 31 -49 71 -62 87
-30 37 -145 277 -177 368 -55 161 -95 348 -109 516 -8 91 -17 180 -20 196 -6
38 11 401 24 492 6 37 12 104 15 148 9 142 26 247 66 410 21 88 43 187 50 220
14 74 27 118 50 170 10 22 28 77 39 121 23 89 61 194 92 256 11 22 32 74 46
117 14 42 42 112 63 156 33 71 48 126 65 245 27 193 28 209 11 327 -9 65 -19
177 -22 248 -3 72 -9 146 -14 165 -4 19 -11 77 -15 129 -6 85 -20 145 -80 347
-21 71 -104 193 -167 246 -50 42 -137 97 -203 128 -41 20 -76 46 -69 53 3 3
11 4 17 2 7 -3 75 -9 152 -15z m-298 -9 c49 -10 263 -118 293 -149 13 -13 13
-14 -5 -8 -19 6 -19 6 -1 -9 10 -8 23 -12 27 -9 16 9 9 -8 -7 -20 -13 -10 -13
-12 5 -13 12 -1 21 2 21 8 0 5 5 9 11 9 5 0 7 -5 3 -12 -5 -7 -2 -9 8 -5 10 3
28 -8 50 -31 37 -39 72 -91 66 -97 -2 -2 -49 -7 -104 -11 -115 -7 -358 11
-419 32 -45 15 -133 18 -154 5 -15 -10 -6 -51 12 -51 141 -5 129 -2 179 -52
74 -72 91 -119 96 -271 5 -144 5 -143 -76 -198 -64 -43 -113 -52 -220 -40 -83
9 -97 14 -159 55 -68 45 -130 110 -170 176 -30 51 -47 180 -39 305 11 172 31
209 157 291 82 54 121 66 284 92 85 13 87 13 142 3z m327 -413 c99 -2 174 -7
178 -13 4 -5 7 -21 7 -35 0 -14 -3 -19 -6 -12 -8 19 -22 4 -16 -18 3 -11 12
-20 19 -20 8 0 14 -8 14 -18 0 -10 5 -23 11 -29 13 -13 2 -36 -13 -27 -7 4 -8
-5 -3 -27 4 -19 12 -36 17 -38 6 -2 4 -8 -3 -13 -11 -7 -11 -11 -1 -15 6 -2 9
-9 6 -14 -9 -16 5 -59 20 -59 16 0 40 -50 29 -60 -7 -7 -142 -30 -303 -50 -72
-10 -152 -24 -190 -36 l-25 -7 25 19 c14 10 34 24 45 30 29 16 32 124 6 245
-26 127 -43 164 -91 194 -22 14 -40 27 -40 29 0 1 32 -3 71 -11 39 -7 148 -14
243 -15z m-956 -225 c14 -63 46 -115 132 -212 62 -71 170 -131 234 -131 28 0
36 -4 36 -17 0 -10 12 -54 26 -98 21 -66 27 -112 35 -265 5 -101 7 -190 4
-197 -3 -10 -10 -11 -22 -5 -10 6 -86 33 -170 60 -83 28 -169 59 -190 70 -21
10 -69 27 -107 36 -93 23 -140 49 -201 110 -78 77 -118 167 -126 280 -14 202
47 309 226 400 28 14 64 26 80 26 30 0 32 -3 43 -57z m1223 -310 c0 -32 4 -84
8 -116 8 -68 10 -65 -114 -206 -149 -167 -316 -264 -502 -289 l-61 -8 -7 152
c-7 150 -7 154 19 209 14 32 41 78 60 104 45 62 67 107 61 123 -6 15 71 28
275 49 52 5 120 16 150 23 30 8 67 14 83 15 26 1 27 0 28 -56z m-630 -21 c14
-6 10 -20 -31 -99 l-47 -92 -13 42 c-7 23 -23 63 -36 90 l-24 47 27 2 c69 3
84 5 90 12 7 7 12 7 34 -2z m660 -427 c1 -49 -3 -118 -11 -152 l-13 -63 -236
1 c-206 0 -232 2 -200 14 82 30 131 61 270 170 46 36 157 179 167 215 8 32 19
-55 23 -185z m-136 -429 c8 -115 7 -119 -98 -415 l-40 -113 -45 6 c-25 3 -58
6 -74 6 -17 0 -27 4 -23 10 3 6 1 10 -4 10 -6 0 -11 -4 -11 -10 0 -22 -26 -8
-28 15 -1 14 3 25 8 25 6 0 10 -4 10 -10 0 -5 10 -8 23 -6 12 3 25 5 28 5 4 1
9 10 12 21 3 13 11 18 20 14 8 -3 18 0 23 7 5 8 3 10 -5 4 -10 -5 -9 -2 0 13
7 12 18 18 24 14 5 -3 4 2 -4 11 -12 16 -8 22 12 18 5 -1 6 3 3 8 -4 5 -2 12
3 15 5 4 8 18 5 31 -3 18 0 25 12 25 12 0 15 6 10 23 -3 12 -6 33 -6 46 0 16
-4 21 -15 18 -14 -6 -28 7 -31 31 -2 9 1 10 10 3 7 -6 15 -8 19 -5 9 9 -4 35
-14 28 -5 -3 -9 0 -9 7 0 6 8 9 20 6 12 -3 17 -1 14 5 -6 9 -51 31 -68 32 -19
2 -16 24 4 29 11 3 20 10 20 17 0 7 -8 9 -20 5 -15 -5 -21 0 -26 21 -5 18 -3
29 4 32 15 5 16 22 2 22 -6 0 -15 -12 -20 -26 -8 -20 -15 -24 -33 -19 l-22 6
23 -20 c27 -23 21 -50 -6 -29 -15 12 -16 11 -3 -5 8 -10 20 -16 28 -13 8 3 11
1 8 -4 -11 -18 -31 -11 -45 15 -7 14 -19 25 -26 25 -8 0 -11 6 -8 13 5 14 -29
17 -42 4 -4 -4 -16 -7 -26 -7 -10 0 -17 -3 -17 -7 3 -21 -2 -45 -8 -39 -8 7
-9 11 -12 37 0 5 -9 9 -18 8 -38 -3 -45 1 -40 24 8 31 -2 43 -42 52 -32 7 -34
6 -18 -9 14 -14 14 -46 0 -46 -3 0 -3 6 0 14 6 14 -29 30 -44 20 -12 -7 1 -34
17 -34 28 0 13 -27 -26 -49 l-25 -14 24 27 c14 14 19 26 13 26 -7 0 -12 -4
-12 -10 0 -17 -28 -11 -33 8 -2 9 -4 1 -3 -19 0 -30 5 -40 29 -54 29 -17 29
-17 18 4 -7 11 -8 21 -2 21 13 0 20 -25 14 -49 -4 -14 -13 -21 -30 -21 -18 0
-24 4 -19 15 3 9 0 15 -10 15 -9 0 -18 -9 -21 -20 -3 -11 -9 -18 -13 -15 -4 3
-15 -6 -24 -19 -14 -22 -14 -25 3 -38 24 -17 39 -60 18 -52 -25 9 -28 -26 -4
-59 30 -44 33 -67 7 -62 -11 2 -20 0 -20 -5 0 -16 21 -22 35 -10 20 16 32 6
39 -35 4 -19 11 -35 16 -35 6 0 10 -6 10 -14 0 -19 21 -26 44 -14 31 16 99 19
108 5 19 -30 4 -33 -244 -46 -462 -25 -468 -25 -468 -10 0 8 -7 146 -16 307
-14 233 -15 295 -5 302 21 13 213 22 520 26 161 1 296 5 299 8 3 3 85 6 183 6
l177 0 7 -104z m-1304 -33 c5 -364 9 -472 19 -497 6 -16 9 -30 8 -31 -13 -10
-638 -27 -1034 -28 -461 -2 -492 -1 -508 16 -11 11 -25 15 -35 12 -9 -4 -138
-9 -287 -12 l-271 -6 -7 157 c-5 87 -5 220 -1 297 l8 139 251 -3 c359 -3 1439
12 1622 23 85 5 162 14 172 19 9 6 27 11 40 11 21 0 22 -3 23 -97z m918 -59
c-14 -18 -24 -11 -15 11 3 9 11 13 16 10 8 -5 7 -11 -1 -21z m-181 -9 c-3 -3
-9 2 -12 12 -6 14 -5 15 5 6 7 -7 10 -15 7 -18z m359 -37 c0 -18 -5 -23 -28
-24 -16 -1 -29 3 -29 7 0 5 7 9 15 9 9 0 12 6 9 15 -4 10 0 15 14 15 14 0 19
-7 19 -22z m-1 -85 c-4 -4 -11 -1 -16 7 -7 11 -10 12 -10 2 0 -16 -19 -36 -42
-45 -11 -4 -17 -2 -15 6 1 7 -6 11 -17 9 -17 -3 -18 -2 -3 12 21 21 38 20 30
-1 -4 -10 6 -4 22 13 26 27 32 30 44 18 8 -7 11 -17 7 -21z m-436 7 c0 -5 -2
-10 -4 -10 -3 0 -8 5 -11 10 -3 6 -1 10 4 10 6 0 11 -4 11 -10z m465 -50 c-3
-5 -10 -10 -16 -10 -5 0 -9 5 -9 10 0 6 7 10 16 10 8 0 12 -4 9 -10z m-128
-36 c-3 -3 -12 -4 -19 -1 -8 3 -5 6 6 6 11 1 17 -2 13 -5z m-50 -20 c-3 -3
-12 -4 -19 -1 -8 3 -5 6 6 6 11 1 17 -2 13 -5z m-247 -44 c0 -5 -7 -7 -15 -4
-8 4 -15 8 -15 10 0 2 7 4 15 4 8 0 15 -4 15 -10z m233 -30 c-6 -21 -18 -26
-27 -12 -3 5 -2 18 1 30 4 17 9 20 18 12 7 -6 11 -20 8 -30z m-93 -10 c0 -5
-4 -10 -10 -10 -5 0 -10 5 -10 10 0 6 5 10 10 10 6 0 10 -4 10 -10z m-14 -47
c-6 -15 -8 -15 -22 -2 -8 9 -12 23 -8 32 5 15 8 15 21 1 8 -8 12 -22 9 -31z
m111 11 c14 6 15 4 6 -5 -6 -6 -9 -18 -6 -25 3 -9 -2 -14 -12 -14 -13 0 -15
-3 -6 -13 13 -16 5 -27 -21 -27 -10 0 -18 7 -18 16 0 8 4 13 9 10 5 -3 12 1
15 10 10 26 7 34 -14 34 -11 0 -20 4 -20 9 0 14 24 19 37 9 7 -6 21 -7 30 -4z
m-197 -34 c0 -5 -5 -10 -11 -10 -5 0 -7 5 -4 10 3 6 8 10 11 10 2 0 4 -4 4
-10z m390 -167 c0 -5 -9 -32 -21 -62 -11 -30 -31 -109 -45 -175 -13 -67 -36
-162 -49 -212 -25 -92 -63 -365 -85 -613 -15 -167 -15 -500 -1 -647 19 -192
110 -524 192 -701 l31 -68 2 -372 c1 -351 0 -372 -16 -367 -10 3 -18 2 -18 -3
0 -14 -771 -17 -816 -3 l-39 12 -1 377 c-1 210 -8 456 -15 556 -9 112 -13 316
-13 540 1 198 2 603 3 900 0 297 4 600 7 673 l7 132 73 0 c40 0 106 5 146 11
129 18 658 36 658 22z m-2355 -65 c83 0 424 2 758 6 l609 5 -7 -122 c-16 -309
-7 -2908 11 -3018 l5 -36 -152 -6 c-84 -4 -216 -7 -293 -7 -78 0 -181 -5 -231
-10 -49 -5 -281 -11 -515 -12 l-425 -3 -7 70 c-4 39 -14 194 -23 345 -9 151
-23 354 -31 450 -12 141 -15 338 -13 1020 1 465 1 954 0 1088 l-3 243 83 -6
c46 -3 152 -6 234 -7z m6798 -1879 c23 -18 43 -36 45 -40 2 -4 19 -33 38 -65
34 -56 40 -92 16 -87 -7 2 -12 -2 -12 -8 0 -7 10 -9 25 -5 15 4 25 2 25 -4 0
-6 -4 -8 -10 -5 -5 3 -10 -1 -10 -9 0 -10 6 -13 17 -9 16 6 16 5 3 -10 -35
-41 -42 -47 -61 -47 -10 0 -19 -5 -19 -11 0 -6 7 -9 15 -5 9 3 15 0 15 -9 0
-8 5 -15 10 -15 6 0 10 6 10 13 0 6 15 -4 33 -23 l32 -34 0 -141 c0 -178 -9
-248 -44 -349 -50 -145 -61 -164 -111 -188 -42 -21 -60 -23 -245 -24 -221 -2
-719 -19 -976 -34 -92 -6 -263 -10 -380 -10 -126 0 -268 -7 -344 -16 -71 -8
-173 -19 -225 -25 -52 -5 -108 -14 -125 -19 -40 -12 -307 -56 -425 -71 -52 -6
-107 -18 -122 -25 -38 -20 -38 -19 -12 31 22 45 27 65 59 230 24 125 9 270
-45 436 -23 72 -36 97 -105 199 -61 91 -147 200 -189 239 -48 45 -38 51 97 51
155 0 428 -35 597 -77 65 -15 92 -21 250 -48 335 -58 333 -58 575 -52 369 10
496 29 746 116 31 10 82 24 114 31 32 7 72 21 89 31 17 10 43 19 58 19 15 0
33 8 40 18 11 16 40 28 113 47 11 3 72 12 134 20 63 8 117 18 120 21 3 3 37 4
74 1 58 -4 74 -9 110 -38z m-1025 -110 c-19 -12 -25 -11 -25 5 0 8 8 11 20 8
14 -4 16 -7 5 -13z m-3162 -779 c27 -36 77 -94 112 -130 34 -36 62 -68 62 -72
0 -5 6 -8 14 -8 8 0 38 -21 68 -46 29 -25 78 -59 108 -76 30 -17 68 -42 83
-55 l29 -23 -224 0 c-123 0 -253 3 -290 6 l-67 7 -3 256 c-4 322 -4 319 31
255 15 -27 50 -78 77 -114z m74 100 c0 -5 -2 -10 -4 -10 -3 0 -8 5 -11 10 -3
6 -1 10 4 10 6 0 11 -4 11 -10z m160 -94 c0 -2 3 -11 6 -20 9 -23 -13 -20 -26
4 -9 16 -8 20 5 20 8 0 15 -2 15 -4z m20 -61 c0 -8 -4 -15 -10 -15 -5 0 -7 7
-4 15 4 8 8 15 10 15 2 0 4 -7 4 -15z"/>
<path d="M4512 6228 c-6 -18 -14 -60 -17 -93 -3 -33 -10 -96 -15 -140 -6 -44
-15 -158 -20 -253 -6 -95 -14 -182 -19 -194 -7 -20 -10 -17 -24 23 -9 24 -22
66 -27 94 -6 27 -17 63 -25 80 -8 16 -21 55 -30 86 -17 60 -45 95 -69 86 -20
-8 -45 -95 -70 -250 l-21 -129 -37 129 c-36 122 -108 442 -111 491 -1 13 -10
28 -20 33 -25 15 -33 -14 -19 -75 7 -28 23 -109 37 -181 14 -71 39 -177 56
-235 17 -58 39 -136 50 -173 34 -116 72 -100 93 39 23 149 48 274 55 274 7 0
43 -104 71 -207 23 -86 39 -120 74 -152 23 -22 28 -23 41 -10 19 19 33 113 45
309 5 91 17 224 26 295 22 171 22 179 2 183 -11 2 -19 -7 -26 -30z"/>
<path d="M5096 6072 c-2 -4 -1 -14 5 -22 5 -8 9 -43 9 -76 0 -34 9 -128 20
-209 11 -81 20 -167 20 -190 0 -28 5 -45 14 -48 24 -10 33 15 39 106 6 100 16
121 52 105 26 -12 59 -88 75 -177 12 -63 13 -66 36 -57 21 8 11 85 -24 180
-34 93 -94 130 -149 91 -20 -14 -21 -13 -27 33 -3 26 -9 92 -12 147 -4 55 -11
106 -17 113 -11 14 -33 16 -41 4z"/>
<path d="M6226 5983 c-4 -49 -9 -123 -12 -165 l-6 -78 -33 0 c-34 0 -61 -22
-50 -40 4 -6 23 -10 44 -8 34 3 36 1 38 -27 8 -155 15 -184 40 -164 12 11 14
29 8 100 l-7 86 39 6 c21 4 50 7 65 7 28 0 62 26 53 40 -3 5 -39 6 -80 3 l-75
-6 0 29 c0 16 7 80 17 141 17 117 11 163 -21 163 -10 0 -15 -22 -20 -87z"/>
<path d="M5496 6042 c-3 -5 1 -62 9 -128 7 -65 19 -180 25 -254 7 -87 16 -140
25 -149 22 -23 34 -4 29 47 -36 369 -45 450 -50 470 -6 22 -28 30 -38 14z"/>
<path d="M4697 5944 c-14 -15 -6 -34 14 -34 14 0 19 5 17 17 -3 18 -20 27 -31
17z"/>
<path d="M4664 5856 c-3 -8 2 -59 10 -113 9 -54 17 -120 19 -148 1 -38 6 -51
20 -53 15 -3 17 5 17 70 0 85 -19 227 -33 246 -13 16 -26 15 -33 -2z"/>
<path d="M5693 5834 c-7 -18 11 -39 26 -30 17 11 13 46 -4 46 -9 0 -18 -7 -22
-16z"/>
<path d="M4901 5811 c-29 -29 -26 -67 8 -110 39 -49 65 -106 58 -125 -7 -18
-42 -22 -52 -6 -11 17 -35 11 -35 -10 0 -23 28 -40 67 -40 34 0 46 8 61 37 15
28 1 71 -50 146 -43 65 -44 84 -1 89 40 4 37 32 -4 36 -22 2 -38 -3 -52 -17z"/>
<path d="M5975 5790 c-40 -4 -52 -10 -64 -31 -20 -35 -8 -72 39 -123 22 -24
40 -50 40 -59 0 -20 -31 -38 -62 -34 -17 1 -23 -3 -23 -18 0 -15 8 -21 32 -23
38 -4 67 10 88 42 22 33 11 68 -36 116 -24 24 -39 50 -39 64 0 23 5 25 47 28
35 2 49 8 51 19 4 21 -12 26 -73 19z"/>
<path d="M5667 5748 c-2 -7 1 -24 8 -38 7 -14 15 -46 18 -71 8 -57 25 -96 45
-104 26 -10 35 10 19 41 -8 16 -17 50 -20 77 -4 26 -14 61 -22 77 -16 31 -40
40 -48 18z"/>
<path d="M5916 4954 c-9 -8 -16 -17 -16 -19 0 -2 26 -15 58 -30 43 -20 65 -25
92 -20 32 6 97 7 160 2 16 -1 26 4 28 15 6 31 -127 51 -181 27 -20 -9 -33 -6
-75 15 -46 23 -52 24 -66 10z"/>
<path d="M3973 4873 c-4 -10 -1 -19 6 -21 7 -2 32 -22 57 -43 25 -21 52 -39
61 -39 8 0 28 14 43 30 32 34 40 36 81 15 27 -14 36 -14 88 -1 56 14 60 14
103 -8 33 -17 58 -22 94 -19 27 1 97 4 157 4 94 2 107 4 107 19 0 24 -46 29
-195 24 -109 -3 -124 -1 -162 18 -39 21 -45 21 -93 9 -47 -12 -58 -11 -107 5
l-55 19 -29 -33 c-16 -17 -32 -32 -35 -32 -4 0 -24 16 -45 35 -43 38 -66 44
-76 18z"/>
<path d="M5595 4869 c-39 -21 -42 -21 -86 -5 -60 21 -68 20 -95 -5 -20 -19
-26 -20 -58 -8 -27 10 -39 10 -48 1 -18 -18 8 -40 58 -48 37 -5 49 -3 67 14
20 19 25 19 56 6 44 -18 91 -18 119 2 19 13 28 14 52 4 54 -22 68 9 18 40 -40
24 -35 24 -83 -1z"/>
<path d="M5866 4308 c-11 -6 -63 -12 -115 -12 -66 -1 -96 -5 -98 -13 -10 -30
112 -44 192 -21 50 14 95 14 165 0 56 -10 84 -2 63 19 -13 13 -117 38 -158 38
-16 0 -39 -5 -49 -11z"/>
<path d="M5126 4244 c-25 -14 -37 -14 -88 -4 -48 11 -66 10 -98 0 -32 -10 -48
-10 -84 0 -45 12 -76 9 -76 -8 0 -5 29 -19 65 -31 61 -21 66 -21 96 -6 27 15
38 15 78 4 54 -15 93 -14 130 5 22 12 30 12 51 0 36 -19 80 -17 118 6 56 35
27 67 -32 35 -31 -17 -35 -17 -66 -1 -40 20 -57 20 -94 0z"/>
<path d="M3932 4234 c2 -8 24 -27 50 -42 l47 -27 43 23 c45 25 53 24 117 -13
21 -12 30 -12 58 0 28 12 38 12 67 0 36 -15 46 -12 46 15 0 26 -69 45 -112 31
-28 -9 -40 -8 -73 9 -49 25 -82 25 -119 1 -28 -19 -29 -19 -60 0 -38 23 -69
25 -64 3z"/>
<path d="M5470 3726 c-25 -13 -158 -28 -277 -30 -73 -1 -84 -8 -48 -32 22 -14
38 -16 103 -9 42 4 101 7 130 6 35 -1 69 6 99 19 l46 20 40 -21 c38 -19 42
-20 76 -4 32 14 41 14 77 1 23 -8 47 -10 54 -6 45 28 -64 71 -131 51 -33 -10
-43 -9 -61 4 -27 18 -74 19 -108 1z"/>
<path d="M5983 3725 c-45 -19 -45 -50 -2 -41 17 3 62 6 100 6 53 0 69 3 69 14
0 20 -6 22 -75 29 -42 5 -70 2 -92 -8z"/>
<path d="M3964 3719 c-12 -20 30 -49 89 -61 51 -11 61 -10 91 6 33 18 35 18
90 -3 67 -25 116 -27 157 -6 28 15 35 14 95 -6 58 -20 69 -21 107 -9 23 7 51
14 62 14 13 1 20 8 20 21 0 22 -26 24 -107 9 -25 -4 -51 -1 -78 10 -52 20 -80
20 -125 -1 -35 -17 -39 -17 -100 5 -75 26 -107 28 -139 7 -20 -13 -31 -14 -70
-4 -26 6 -49 15 -52 20 -7 13 -31 11 -40 -2z"/>
<path d="M3852 3218 c-20 -20 -14 -35 24 -57 23 -14 53 -21 87 -21 29 -1 63
-7 77 -15 30 -17 71 -19 104 -4 20 10 29 8 53 -9 41 -29 76 -36 117 -22 29 9
45 8 90 -6 29 -9 61 -14 70 -11 21 8 20 34 -1 40 -95 26 -126 30 -163 21 -39
-11 -54 -7 -119 31 -21 12 -30 11 -63 -2 -36 -14 -42 -14 -79 2 -25 12 -59 18
-89 16 -43 -2 -51 1 -66 24 -18 28 -25 30 -42 13z"/>
<path d="M5366 3154 c-32 -22 -42 -24 -63 -15 -37 17 -74 13 -99 -10 l-23 -22
-26 32 c-29 34 -52 40 -61 16 -4 -10 9 -30 35 -55 43 -42 58 -43 98 -7 21 19
23 19 67 2 l46 -18 33 26 c23 17 42 24 56 20 27 -7 29 17 3 40 -23 21 -20 22
-66 -9z"/>
<path d="M6119 3170 c-21 -12 -73 -14 -121 -5 -31 6 -38 5 -38 -8 0 -20 50
-47 87 -47 15 0 45 5 66 11 32 8 45 7 74 -6 29 -14 43 -15 77 -6 22 6 57 12
76 13 27 2 35 7 35 23 0 18 -6 20 -50 18 -27 0 -64 -4 -82 -8 -22 -5 -39 -2
-55 9 -25 18 -45 20 -69 6z"/>
<path d="M6756 2705 c-3 -8 -1 -15 4 -15 6 0 10 7 10 15 0 8 -2 15 -4 15 -2 0
-6 -7 -10 -15z"/>
<path d="M3996 1441 c-3 -5 1 -12 10 -15 22 -8 25 -4 9 11 -8 7 -16 9 -19 4z"/>
<path d="M3325 6740 c3 -5 8 -10 11 -10 2 0 4 5 4 10 0 6 -5 10 -11 10 -5 0
-7 -4 -4 -10z"/>
<path d="M3400 6709 c0 -6 -7 -9 -15 -5 -8 3 -15 1 -15 -5 0 -6 10 -9 22 -7
14 2 23 -2 23 -11 0 -20 21 -25 28 -6 4 9 1 15 -9 15 -8 0 -13 4 -10 9 3 5 -1
11 -9 15 -8 3 -15 1 -15 -5z"/>
<path d="M3236 5125 c4 -8 7 -15 9 -15 2 0 5 7 9 15 3 9 0 15 -9 15 -9 0 -12
-6 -9 -15z"/>
<path d="M3386 5105 c-3 -8 -1 -15 4 -15 6 0 10 7 10 15 0 8 -2 15 -4 15 -2 0
-6 -7 -10 -15z"/>
<path d="M3395 5050 c-8 -13 5 -13 25 0 13 8 13 10 -2 10 -9 0 -20 -4 -23 -10z"/>
<path d="M2855 5000 c-3 -5 1 -10 9 -10 9 0 16 5 16 10 0 6 -4 10 -9 10 -6 0
-13 -4 -16 -10z"/>
<path d="M2816 4991 c-4 -5 -2 -12 3 -15 5 -4 12 -2 15 3 4 5 2 12 -3 15 -5 4
-12 2 -15 -3z"/>
<path d="M2760 4936 c0 -2 7 -7 16 -10 8 -3 12 -2 9 4 -6 10 -25 14 -25 6z"/>
<path d="M2806 4881 c-3 -5 1 -14 8 -20 16 -13 32 2 21 19 -8 12 -22 13 -29 1z"/>
<path d="M3450 4880 c0 -5 5 -10 11 -10 5 0 7 5 4 10 -3 6 -8 10 -11 10 -2 0
-4 -4 -4 -10z"/>
<path d="M2845 4750 c-3 -5 -1 -10 4 -10 6 0 11 5 11 10 0 6 -2 10 -4 10 -3 0
-8 -4 -11 -10z"/>
<path d="M2106 4975 c-9 -26 -7 -32 5 -12 6 10 9 21 6 23 -2 3 -7 -2 -11 -11z"/>
<path d="M2070 4950 c0 -5 5 -10 11 -10 5 0 7 5 4 10 -3 6 -8 10 -11 10 -2 0
-4 -4 -4 -10z"/>
<path d="M2165 4940 c-4 -7 -16 -10 -26 -7 -14 4 -19 0 -19 -14 0 -10 -5 -19
-11 -19 -5 0 -7 -5 -4 -10 4 -6 13 -7 24 -1 10 6 23 6 31 1 12 -7 12 -10 -2
-15 -10 -4 -15 -13 -11 -23 4 -14 3 -14 -5 -3 -6 8 -17 11 -25 8 -9 -3 -18 -1
-20 6 -2 7 -8 9 -12 5 -4 -4 0 -19 10 -34 15 -23 15 -26 2 -21 -11 4 -14 2
-10 -9 3 -8 2 -14 -3 -13 -23 4 -34 -3 -34 -21 0 -11 6 -20 14 -20 8 0 18 -5
22 -12 4 -7 3 -8 -4 -4 -7 4 -12 2 -12 -3 0 -6 10 -11 21 -11 18 0 19 -3 9
-15 -6 -8 -10 -20 -8 -26 2 -7 14 8 26 34 17 36 27 46 49 49 16 2 28 8 29 13
4 38 18 74 30 77 10 2 8 14 -9 47 -24 47 -40 60 -52 41z m25 -30 c0 -5 -7 -7
-15 -4 -8 4 -15 8 -15 10 0 2 7 4 15 4 8 0 15 -4 15 -10z m-20 -86 c0 -8 -5
-12 -10 -9 -6 4 -8 11 -5 16 9 14 15 11 15 -7z m-38 -34 c-12 -11 -19 -27 -16
-35 9 -23 -10 -18 -32 8 -10 12 -15 19 -10 15 4 -4 17 2 29 13 11 10 28 19 36
19 11 0 9 -5 -7 -20z m28 -14 c0 -2 -7 -6 -15 -10 -8 -3 -15 -1 -15 4 0 6 7
10 15 10 8 0 15 -2 15 -4z"/>
<path d="M2040 4820 c0 -5 5 -10 11 -10 5 0 7 5 4 10 -3 6 -8 10 -11 10 -2 0
-4 -4 -4 -10z"/>
<path d="M2157 4736 c-3 -8 0 -17 7 -19 10 -4 12 1 9 14 -6 23 -9 24 -16 5z"/>
<path d="M2135 4699 c-10 -15 3 -25 16 -12 7 7 7 13 1 17 -6 3 -14 1 -17 -5z"/>
<path d="M7874 2306 c-10 -8 -15 -18 -11 -22 4 -4 15 0 24 9 22 21 12 31 -13
13z"/>
<path d="M7913 2283 c-16 -6 -17 -46 -1 -41 6 2 12 14 13 26 1 12 1 22 1 21
-1 0 -7 -3 -13 -6z"/>
</g>
</svg>
